<svg xmlns="http://www.w3.org/2000/svg" width="32" height="32" viewBox="0 0 361 361" shape-rendering="crispEdges">
  <defs>
    <clipPath id="app-shape">
      <path d="M360,112.61c0-4.3,0-8.6-0.02-12.9c-0.02-3.62-0.06-7.24-0.16-10.86c-0.21-7.89-0.68-15.84-2.08-23.64
        c-1.42-7.92-3.75-15.29-7.41-22.49c-3.6-7.07-8.3-13.53-13.91-19.14c-5.61-5.61-12.08-10.31-19.15-13.91
        c-7.19-3.66-14.56-5.98-22.47-7.41c-7.8-1.4-15.76-1.87-23.65-2.08c-3.62-0.1-7.24-0.14-10.86-0.16C255.99,0,251.69,0,247.39,0
        H112.61c-4.3,0-8.6,0-12.9,0.02c-3.62,0.02-7.24,0.06-10.86,0.16C80.96,0.4,73,0.86,65.2,2.27c-7.92,1.42-15.28,3.75-22.47,7.41
        c-7.07,3.6-13.54,8.3-19.15,13.91c-5.61,5.61-10.31,12.07-13.91,19.14c-3.66,7.2-5.99,14.57-7.41,22.49
        c-1.4,7.8-1.87,15.76-2.08,23.64c-0.1,3.62-0.14,7.24-0.16,10.86C0,104.01,0,108.31,0,112.61v134.77c0,4.3,0,8.6,0.02,12.9
        c0.02,3.62,0.06,7.24,0.16,10.86c0.21,7.89,0.68,15.84,2.08,23.64c1.42,7.92,3.75,15.29,7.41,22.49c3.6,7.07,8.3,13.53,13.91,19.14
        c5.61,5.61,12.08,10.31,19.15,13.91c7.19,3.66,14.56,5.98,22.47,7.41c7.8,1.4,15.76,1.87,23.65,2.08c3.62,0.1,7.24,0.14,10.86,0.16
        c4.3,0.03,8.6,0.02,12.9,0.02h134.77c4.3,0,8.6,0,12.9-0.02c3.62-0.02,7.24-0.06,10.86-0.16c7.89-0.21,15.85-0.68,23.65-2.08
        c7.92-1.42,15.28-3.75,22.47-7.41c7.07-3.6,13.54-8.3,19.15-13.91c5.61-5.61,10.31-12.07,13.91-19.14
        c3.66-7.2,5.99-14.57,7.41-22.49c1.4-7.8,1.87-15.76,2.08-23.64c0.1-3.62,0.14-7.24,0.16-10.86c0.03-4.3,0.02-8.6,0.02-12.9V112.61z"/>
    </clipPath>
  </defs>

  <path fill="#26050c" d="M360,112.61c0-4.3,0-8.6-0.02-12.9c-0.02-3.62-0.06-7.24-0.16-10.86c-0.21-7.89-0.68-15.84-2.08-23.64
    c-1.42-7.92-3.75-15.29-7.41-22.49c-3.6-7.07-8.3-13.53-13.91-19.14c-5.61-5.61-12.08-10.31-19.15-13.91
    c-7.19-3.66-14.56-5.98-22.47-7.41c-7.8-1.4-15.76-1.87-23.65-2.08c-3.62-0.1-7.24-0.14-10.86-0.16C255.99,0,251.69,0,247.39,0
    H112.61c-4.3,0-8.6,0-12.9,0.02c-3.62,0.02-7.24,0.06-10.86,0.16C80.96,0.4,73,0.86,65.2,2.27c-7.92,1.42-15.28,3.75-22.47,7.41
    c-7.07,3.6-13.54,8.3-19.15,13.91c-5.61,5.61-10.31,12.07-13.91,19.14c-3.66,7.2-5.99,14.57-7.41,22.49
    c-1.4,7.8-1.87,15.76-2.08,23.64c-0.1,3.62-0.14,7.24-0.16,10.86C0,104.01,0,108.31,0,112.61v134.77c0,4.3,0,8.6,0.02,12.9
    c0.02,3.62,0.06,7.24,0.16,10.86c0.21,7.89,0.68,15.84,2.08,23.64c1.42,7.92,3.75,15.29,7.41,22.49c3.6,7.07,8.3,13.53,13.91,19.14
    c5.61,5.61,12.08,10.31,19.15,13.91c7.19,3.66,14.56,5.98,22.47,7.41c7.8,1.4,15.76,1.87,23.65,2.08c3.62,0.1,7.24,0.14,10.86,0.16
    c4.3,0.03,8.6,0.02,12.9,0.02h134.77c4.3,0,8.6,0,12.9-0.02c3.62-0.02,7.24-0.06,10.86-0.16c7.89-0.21,15.85-0.68,23.65-2.08
    c7.92-1.42,15.28-3.75,22.47-7.41c7.07-3.6,13.54-8.3,19.15-13.91c5.61-5.61,10.31-12.07,13.91-19.14
    c3.66-7.2,5.99-14.57,7.41-22.49c1.4-7.8,1.87-15.76,2.08-23.64c0.1-3.62,0.14-7.24,0.16-10.86c0.03-4.3,0.02-8.6,0.02-12.9V112.61z"/>
  <path fill="#f84b67" d="M348,112.61c0-4.15,0-8.31-0.02-12.46c-0.02-3.5-0.06-7.01-0.15-10.51c-0.2-7.64-0.66-14.84-1.95-22.02
    c-1.28-7.15-3.33-13.61-6.57-20.01c-3.16-6.22-7.19-11.77-12.13-16.71c-4.94-4.94-10.49-8.97-16.71-12.13
    c-6.39-3.24-12.86-5.29-20.01-6.57c-7.19-1.29-14.39-1.75-22.03-1.95c-3.5-0.09-7-0.13-10.5-0.15C253.7,8.02,249.54,8,245.39,8
    H115.61c-4.15,0-8.31,0.02-12.54,0.1c-3.5,0.02-7,0.06-10.5,0.15c-7.64,0.2-14.84,0.66-22.03,1.95
    c-7.15,1.28-13.61,3.33-20.01,6.57c-6.22,3.16-11.77,7.19-16.71,12.13c-4.94,4.94-8.97,10.49-12.13,16.71
    c-3.24,6.39-5.29,12.86-6.57,20.01c-1.29,7.18-1.75,14.38-1.95,22.02c-0.09,3.5-0.13,7.01-0.15,10.51
    C12,104.3,12,108.46,12,112.61v134.77c0,4.15,0,8.31,0.02,12.46c0.02,3.5,0.06,7.01,0.15,10.51c0.2,7.64,0.66,14.84,1.95,22.02
    c1.28,7.15,3.33,13.61,6.57,20.01c3.16,6.22,7.19,11.77,12.13,16.71c4.94,4.94,10.49,8.97,16.71,12.13
    c6.39,3.24,12.86,5.29,20.01,6.57c7.19,1.29,14.39,1.75,22.03,1.95c3.5,0.09,7,0.13,10.5,0.15c4.23,0.08,8.39,0.1,12.54,0.1h129.78
    c4.15,0,8.31-0.02,12.54-0.1c3.5-0.02,7-0.06,10.5-0.15c7.64-0.2,14.84-0.66,22.03-1.95c7.15-1.28,13.61-3.33,20.01-6.57
    c6.22-3.16,11.77-7.19,16.71-12.13c4.94-4.94,8.97-10.49,12.13-16.71c3.24-6.39,5.29-12.86,6.57-20.01
    c1.29-7.18,1.75-14.38,1.95-22.02c0.09-3.5,0.13-7.01,0.15-10.51c0.02-4.15,0.02-8.31,0.02-12.46V112.61z"/>
  <g clip-path="url(#app-shape)">
    <path fill="#ff9aac" d="M24 34h314v18H24zM16 52h24v16H16zM40 24h216v16H40z" opacity="0.9"/>
    <path fill="#b5172f" d="M0 298h361v28H0zM294 326h67v35h-67zM320 0h41v120h-22V40h-19z" opacity="0.55"/>
    <path fill="#e93452" d="M30 178h142v142H30z" opacity="0.16"/>
  </g>
  <path fill="#ffffff" d="M254.5,55c-0.87,0.08-8.6,1.45-9.53,1.64l-107,21.59l-0.04,0.01c-2.79,0.59-4.98,1.58-6.67,3
    c-2.04,1.71-3.17,4.13-3.6,6.95c-0.09,0.6-0.24,1.82-0.24,3.62c0,0,0,109.32,0,133.92c0,3.13-0.25,6.17-2.37,8.76
    c-2.12,2.59-4.74,3.37-7.81,3.99c-2.33,0.47-4.66,0.94-6.99,1.41c-8.84,1.78-14.59,2.99-19.8,5.01
    c-4.98,1.93-8.71,4.39-11.68,7.51c-5.89,6.17-8.28,14.54-7.46,22.38c0.7,6.69,3.71,13.09,8.88,17.82
    c3.49,3.2,7.85,5.63,12.99,6.66c5.33,1.07,11.01,0.7,19.31-0.98c4.42-0.89,8.56-2.28,12.5-4.61c3.9-2.3,7.24-5.37,9.85-9.11
    c2.62-3.75,4.31-7.92,5.24-12.35c0.96-4.57,1.19-8.7,1.19-13.26l0-116.15c0-6.22,1.76-7.86,6.78-9.08c0,0,88.94-17.94,93.09-18.75
    c5.79-1.11,8.52,0.54,8.52,6.61l0,79.29c0,3.14-0.03,6.32-2.17,8.92c-2.12,2.59-4.74,3.37-7.81,3.99
    c-2.33,0.47-4.66,0.94-6.99,1.41c-8.84,1.78-14.59,2.99-19.8,5.01c-4.98,1.93-8.71,4.39-11.68,7.51
    c-5.89,6.17-8.49,14.54-7.67,22.38c0.7,6.69,3.92,13.09,9.09,17.82c3.49,3.2,7.85,5.56,12.99,6.6c5.33,1.07,11.01,0.69,19.31-0.98
    c4.42-0.89,8.56-2.22,12.5-4.55c3.9-2.3,7.24-5.37,9.85-9.11c2.62-3.75,4.31-7.92,5.24-12.35c0.96-4.57,1-8.7,1-13.26V64.46
    C263.54,58.3,260.29,54.5,254.5,55z"/>
  <path fill="#ffe8ec" d="M145 88l104-21c4-1 6 0 6 4v8l-110 22c-5 1-7 3-7 9V88zM87 250c14-4 28-6 39-6-10 5-18 15-21 29-11 2-20 2-27-2-7-4-11-12-10-21 1-1 6-1 19 0zM218 267c13-4 27-6 38-6-10 5-17 15-20 29-11 2-20 2-27-2-7-4-11-12-10-21 1-1 6-1 19 0z" opacity="0.75"/>
</svg>
